<?xml version="1.0" encoding="utf-8"?>
<!-- Generator: Adobe Illustrator 15.1.0, SVG Export Plug-In  -->
<!DOCTYPE svg PUBLIC "-//W3C//DTD SVG 1.1//EN" "http://www.w3.org/Graphics/SVG/1.1/DTD/svg11.dtd" [
	<!ENTITY ns_flows "http://ns.adobe.com/Flows/1.0/">
]>
<svg version="1.1"
	 xmlns="http://www.w3.org/2000/svg" xmlns:xlink="http://www.w3.org/1999/xlink" xmlns:a="http://ns.adobe.com/AdobeSVGViewerExtensions/3.0/"
	 x="0px" y="0px" width="226px" height="25px" viewBox="-0.606 -0.079 226 25" enable-background="new -0.606 -0.079 226 25"
	 xml:space="preserve">
<defs>
</defs>
<path fill="#029244" d="M0,24C0,24,0.499,4.617,20.158,0.13c0,0,3.497-1.082,1.875,2.993c0,0-0.079,0.361,0.429-0.144
	c0.508-0.505,2.347-3.353,2.131,1.947c0,0-0.216,0.649,0.325,0.325c0.541-0.325,1.37-1.803,1.37-1.803s1.479,0.938,0.793,3.895
	c0,0,4.543,0.504,5.517,2.452L19.437,24H0z"/>
<path fill="#F9AA0C" d="M31.157,11.348l-5.808,6.269l0,0c0,0-1.045,3.102,1.804,4.075c2.849,0.974,4.724-0.468,5.697,2.308
	C32.85,24,35.991,15.932,31.157,11.348z"/>
<path fill="#8DC63F" d="M31.157,11.348L31.157,11.348c0,0-4.725-4.331-10.494-4.187c-5.769,0.145-10.529,4.183-10.24,9.267
	S15.47,23.711,19.22,24h0.216L31.157,11.348z"/>
<circle fill="#FFFFFF" cx="21.726" cy="12.155" r="3.479"/>
<circle fill="#221F1D" cx="21.882" cy="12.215" r="2.302"/>
<circle fill="#FFFFFF" cx="22.516" cy="11.395" r="0.634"/>
<path fill="#EE7A2E" d="M29.667,24c0.769-0.369,1.674-1.093,2.144-1.49c-1.068-0.665-2.612-0.118-4.658-0.818
	c-2.848-0.973-1.804-4.074-1.804-4.074L19.437,24l0.005,0H29.667z"/>
<path fill="#FFFFFF" d="M41.408,20.298v-8.813h-1.496V8.868h1.496V8.423c0-1.379,0.422-2.897,1.449-3.833
	c0.889-0.842,2.127-1.146,3.156-1.146c0.795,0,1.402,0.093,1.893,0.233l-0.14,2.734C47.462,6.32,47.088,6.25,46.62,6.25
	c-1.168,0-1.659,0.911-1.659,2.033v0.584h2.291v2.617h-2.268v8.813H41.408z"/>
<path fill="#FFFFFF" d="M51.484,15.716c0.117,1.474,1.566,2.174,3.226,2.174c1.215,0,2.197-0.164,3.155-0.468l0.468,2.407
	c-1.169,0.468-2.595,0.702-4.137,0.702c-3.881,0-6.102-2.245-6.102-5.82c0-2.899,1.8-6.101,5.773-6.101
	c3.693,0,5.096,2.874,5.096,5.703c0,0.607-0.071,1.146-0.118,1.402H51.484z M55.667,13.286c0-0.865-0.374-2.314-2.01-2.314
	c-1.496,0-2.104,1.356-2.197,2.314H55.667z"/>
<path fill="#FFFFFF" d="M64.763,5.689c0,0.981-0.748,1.777-1.916,1.777c-1.123,0-1.871-0.795-1.847-1.777
	c-0.023-1.029,0.725-1.8,1.87-1.8C64.015,3.889,64.74,4.66,64.763,5.689z M61.093,20.298V8.868h3.553v11.43H61.093z"/>
<path fill="#FFFFFF" d="M67.499,12.631c0-1.682-0.046-2.781-0.094-3.763h3.063l0.116,2.104h0.093c0.585-1.66,1.987-2.36,3.086-2.36
	c0.327,0,0.491,0,0.748,0.046V12c-0.257-0.047-0.561-0.093-0.958-0.093c-1.309,0-2.197,0.7-2.431,1.799
	c-0.047,0.235-0.07,0.515-0.07,0.795v5.796h-3.553V12.631z"/>
<path fill="#FFFFFF" d="M82.624,20.298l-0.21-1.146h-0.07c-0.748,0.912-1.917,1.402-3.272,1.402c-2.314,0-3.693-1.682-3.693-3.506
	c0-2.968,2.664-4.395,6.708-4.371v-0.164c0-0.607-0.328-1.473-2.081-1.473c-1.168,0-2.407,0.397-3.155,0.865l-0.654-2.292
	c0.794-0.444,2.36-1.004,4.441-1.004c3.81,0,5.025,2.243,5.025,4.931v3.974c0,1.099,0.047,2.15,0.164,2.782H82.624z M82.203,14.899
	c-1.87-0.024-3.319,0.42-3.319,1.799c0,0.911,0.608,1.356,1.403,1.356c0.889,0,1.612-0.584,1.846-1.309
	c0.047-0.187,0.07-0.397,0.07-0.607V14.899z"/>
<path fill="#FFFFFF" d="M88.47,12.515c0-1.426-0.046-2.642-0.093-3.646h3.085l0.163,1.565h0.071
	c0.467-0.724,1.636-1.822,3.529-1.822c2.337,0,4.09,1.542,4.09,4.908v6.778h-3.552v-6.334c0-1.473-0.514-2.479-1.8-2.479
	c-0.982,0-1.566,0.678-1.8,1.333c-0.094,0.21-0.141,0.56-0.141,0.888v6.592H88.47V12.515z"/>
<path fill="#FFFFFF" d="M113.46,14.455c0,4.183-2.969,6.1-6.031,6.1c-3.343,0-5.914-2.197-5.914-5.891
	c0-3.692,2.431-6.053,6.101-6.053C111.123,8.611,113.46,11.018,113.46,14.455z M105.186,14.571c0,1.963,0.818,3.436,2.338,3.436
	c1.379,0,2.267-1.379,2.267-3.436c0-1.707-0.654-3.436-2.267-3.436C105.816,11.135,105.186,12.889,105.186,14.571z"/>
<path fill="#FFFFFF" d="M118.091,8.868l1.543,5.306c0.28,0.958,0.49,1.87,0.655,2.782h0.069c0.187-0.935,0.375-1.8,0.632-2.782
	l1.472-5.306h3.74l-4.254,11.43h-3.553l-4.161-11.43H118.091z"/>
<path fill="#FFFFFF" d="M134.175,20.298l-0.21-1.146h-0.07c-0.748,0.912-1.917,1.402-3.272,1.402c-2.315,0-3.693-1.682-3.693-3.506
	c0-2.968,2.664-4.395,6.708-4.371v-0.164c0-0.607-0.328-1.473-2.081-1.473c-1.167,0-2.407,0.397-3.155,0.865l-0.655-2.292
	c0.794-0.444,2.361-1.004,4.441-1.004c3.81,0,5.026,2.243,5.026,4.931v3.974c0,1.099,0.046,2.15,0.164,2.782H134.175z
	 M133.755,14.899c-1.87-0.024-3.319,0.42-3.319,1.799c0,0.911,0.607,1.356,1.402,1.356c0.889,0,1.613-0.584,1.847-1.309
	c0.046-0.187,0.07-0.397,0.07-0.607V14.899z"/>
<path fill="#FF7D00" d="M147.48,15.716c0.116,1.474,1.565,2.174,3.225,2.174c1.215,0,2.197-0.164,3.155-0.468l0.468,2.407
	c-1.169,0.468-2.594,0.702-4.137,0.702c-3.881,0-6.101-2.245-6.101-5.82c0-2.899,1.8-6.101,5.773-6.101
	c3.693,0,5.096,2.874,5.096,5.703c0,0.607-0.07,1.146-0.117,1.402H147.48z M151.663,13.286c0-0.865-0.374-2.314-2.01-2.314
	c-1.496,0-2.104,1.356-2.197,2.314H151.663z"/>
<path fill="#FF7D00" d="M157.088,12.515c0-1.426-0.046-2.642-0.094-3.646h2.992l0.164,1.542h0.07
	c0.491-0.724,1.496-1.799,3.46-1.799c1.472,0,2.641,0.748,3.132,1.939h0.046c0.421-0.583,0.935-1.051,1.473-1.379
	c0.631-0.375,1.333-0.561,2.174-0.561c2.197,0,3.856,1.542,3.856,4.955v6.731h-3.459v-6.217c0-1.66-0.538-2.618-1.683-2.618
	c-0.817,0-1.402,0.561-1.636,1.239c-0.094,0.257-0.141,0.63-0.141,0.911v6.685h-3.459v-6.405c0-1.449-0.514-2.43-1.636-2.43
	c-0.912,0-1.45,0.701-1.66,1.286c-0.117,0.28-0.139,0.607-0.139,0.888v6.662h-3.46V12.515z"/>
<path fill="#FF7D00" d="M190.495,20.018c-0.631,0.28-1.823,0.514-3.179,0.514c-3.693,0-6.054-2.245-6.054-5.844
	c0-3.342,2.291-6.077,6.544-6.077c0.936,0,1.964,0.164,2.711,0.443l-0.561,2.642c-0.42-0.187-1.051-0.351-1.987-0.351
	c-1.87,0-3.085,1.333-3.062,3.203c0,2.104,1.402,3.202,3.132,3.202c0.842,0,1.496-0.141,2.034-0.351L190.495,20.018z"/>
<path fill="#FF7D00" d="M199.053,20.298l-0.21-1.146h-0.069c-0.749,0.912-1.917,1.402-3.273,1.402c-2.314,0-3.693-1.682-3.693-3.506
	c0-2.968,2.665-4.395,6.709-4.371v-0.164c0-0.607-0.328-1.473-2.081-1.473c-1.168,0-2.407,0.397-3.155,0.865l-0.655-2.292
	c0.794-0.444,2.36-1.004,4.441-1.004c3.81,0,5.025,2.243,5.025,4.931v3.974c0,1.099,0.047,2.15,0.164,2.782H199.053z
	 M198.631,14.899c-1.869-0.024-3.319,0.42-3.319,1.799c0,0.911,0.608,1.356,1.403,1.356c0.888,0,1.612-0.584,1.846-1.309
	c0.047-0.187,0.07-0.397,0.07-0.607V14.899z"/>
<path fill="#FF7D00" d="M204.875,17.19c0.654,0.397,2.01,0.864,3.062,0.864c1.075,0,1.52-0.375,1.52-0.958
	c0-0.583-0.351-0.865-1.683-1.309c-2.361-0.795-3.272-2.081-3.249-3.437c0-2.127,1.823-3.739,4.651-3.739
	c1.332,0,2.524,0.304,3.226,0.654l-0.631,2.455c-0.514-0.281-1.496-0.655-2.478-0.655c-0.864,0-1.355,0.351-1.355,0.935
	c0,0.538,0.444,0.818,1.846,1.31c2.174,0.747,3.086,1.846,3.109,3.529c0,2.127-1.683,3.693-4.955,3.693
	c-1.496,0-2.828-0.328-3.693-0.795L204.875,17.19z"/>
<path fill="#FF7D00" d="M221.543,20.298l-0.21-1.146h-0.07c-0.748,0.912-1.917,1.402-3.272,1.402c-2.314,0-3.693-1.682-3.693-3.506
	c0-2.968,2.665-4.395,6.709-4.371v-0.164c0-0.607-0.328-1.473-2.081-1.473c-1.168,0-2.407,0.397-3.155,0.865l-0.655-2.292
	c0.795-0.444,2.361-1.004,4.441-1.004c3.81,0,5.025,2.243,5.025,4.931v3.974c0,1.099,0.047,2.15,0.164,2.782H221.543z
	 M221.123,14.899c-1.87-0.024-3.319,0.42-3.319,1.799c0,0.911,0.607,1.356,1.403,1.356c0.888,0,1.612-0.584,1.846-1.309
	c0.047-0.187,0.07-0.397,0.07-0.607V14.899z"/>
</svg>
