<svg xmlns="http://www.w3.org/2000/svg" viewBox="0 0 54.47 37.79"><title>logo_mini</title><path d="M.94,36.89s2.71-29,32-35.8c0,0,5.24-1.63,2.8,4.47,0,0-.13.54.63-.23s3.53-5,3.21,2.94c0,0-.32,1,.5.5a11,11,0,0,0,2.07-2.71s2.22,1.4,1.18,5.82c0,0,6.82.77,8.26,3.66L31.87,36.89Z" style="fill:#009646"/><path d="M49.48,17.89l-8.72,9.43h0s-1.58,4.65,2.71,6.1,7.09-.73,8.54,3.47C52,36.89,56.75,24.79,49.48,17.89Z" style="fill:#fa0"/><path d="M49.48,17.89h0s-7.09-6.51-15.76-6.28-15.8,6.28-15.35,13.91S26,36.44,31.55,36.89h.32Z" style="fill:#8cc83c"/><circle cx="35.35" cy="19.1" r="5.24" style="fill:#fff"/><circle cx="35.57" cy="19.2" r="3.48" style="fill:#1e1e1e"/><circle cx="36.52" cy="17.98" r="0.95" style="fill:#fff"/><path d="M47.22,36.89a14.43,14.43,0,0,0,3.21-2.25c-1.58-1-3.93-.18-7-1.22-4.29-1.45-2.71-6.1-2.71-6.1l-8.85,9.57H47.22Z" style="fill:#ff7d00"/></svg>