<?xml version="1.0" encoding="utf-8"?>
<!-- Generator: Adobe Illustrator 15.1.0, SVG Export Plug-In  -->
<!DOCTYPE svg PUBLIC "-//W3C//DTD SVG 1.1//EN" "http://www.w3.org/Graphics/SVG/1.1/DTD/svg11.dtd" [
	<!ENTITY ns_flows "http://ns.adobe.com/Flows/1.0/">
]>
<svg version="1.1"
	 xmlns="http://www.w3.org/2000/svg" xmlns:xlink="http://www.w3.org/1999/xlink" xmlns:a="http://ns.adobe.com/AdobeSVGViewerExtensions/3.0/"
	 x="0px" y="0px" width="230px" height="80px" viewBox="-3.2 0 230 80" enable-background="new -3.2 0 230 80" xml:space="preserve"
	>
<defs>
</defs>
<linearGradient id="SVGID_1_" gradientUnits="userSpaceOnUse" x1="19.2974" y1="81.2041" x2="87.8505" y2="10.8466">
	<stop  offset="0" style="stop-color:#006432"/>
	<stop  offset="0.8182" style="stop-color:#009146"/>
</linearGradient>
<path fill="url(#SVGID_1_)" d="M0,79.8c0,0,6-64.2,70.9-79.3c0,0,11.6-3.6,6.2,9.9c0,0-0.3,1.2,1.4-0.5c1.7-1.7,7.8-11.1,7.1,6.5
	c0,0-0.7,2.2,1.1,1.1c1.8-1.1,4.6-6,4.6-6s4.9,3.1,2.6,12.9c0,0,15.1,1.7,18.3,8.1L68.5,79.8H0z"/>
<linearGradient id="SVGID_2_" gradientUnits="userSpaceOnUse" x1="95.9395" y1="71.3633" x2="115.5217" y2="54.1665">
	<stop  offset="0.15" style="stop-color:#FF5500"/>
	<stop  offset="0.8" style="stop-color:#FFAA00"/>
</linearGradient>
<path fill="url(#SVGID_2_)" d="M107.5,37.7L88.2,58.6l0,0c0,0-3.5,10.3,6,13.5s15.7-1.6,18.9,7.7C113.1,79.8,123.6,53,107.5,37.7z"
	/>
<linearGradient id="SVGID_3_" gradientUnits="userSpaceOnUse" x1="39.9438" y1="56.9463" x2="108.111" y2="44.9266">
	<stop  offset="0.2667" style="stop-color:#8DC63F"/>
	<stop  offset="1" style="stop-color:#0087A0"/>
</linearGradient>
<path fill="url(#SVGID_3_)" d="M107.5,37.7L107.5,37.7c0,0-15.7-14.4-34.9-13.9c-19.2,0.5-35,13.9-34,30.8
	c1,16.9,16.8,24.2,29.2,25.2h0.7L107.5,37.7z"/>
<circle fill="#FFFFFF" cx="76.2" cy="40.4" r="11.6"/>
<circle fill="#1E1E1E" cx="76.7" cy="40.6" r="7.7"/>
<circle fill="#FFFFFF" cx="78.8" cy="37.9" r="2.1"/>
<linearGradient id="SVGID_4_" gradientUnits="userSpaceOnUse" x1="86.2305" y1="83.2441" x2="97.7627" y2="59.3878">
	<stop  offset="0" style="stop-color:#FF5A00"/>
	<stop  offset="0.5687" style="stop-color:#FFAA00"/>
</linearGradient>
<path fill="url(#SVGID_4_)" d="M102.5,79.8c2.6-1.2,5.6-3.6,7.1-5c-3.5-2.2-8.7-0.4-15.5-2.7c-9.5-3.2-6-13.5-6-13.5L68.5,79.8h0
	H102.5z"/>
<path fill="#FFFFFF" d="M132.2,34.8V16.7h-3.1v-5.4h3.1v-0.9c0-2.8,0.9-6,3-7.9c1.8-1.7,4.4-2.4,6.5-2.4c1.6,0,2.9,0.2,3.9,0.5
	l-0.3,5.6c-0.6-0.2-1.4-0.3-2.4-0.3c-2.4,0-3.4,1.9-3.4,4.2v1.2h4.7v5.4h-4.7v18.1H132.2z"/>
<path fill="#FFFFFF" d="M152.9,25.4c0.2,3,3.2,4.5,6.6,4.5c2.5,0,4.5-0.3,6.5-1l1,5c-2.4,1-5.3,1.4-8.5,1.4c-8,0-12.6-4.6-12.6-12
	c0-6,3.7-12.6,11.9-12.6c7.6,0,10.5,5.9,10.5,11.7c0,1.3-0.1,2.4-0.2,2.9H152.9z M161.5,20.4c0-1.8-0.8-4.8-4.1-4.8
	c-3.1,0-4.3,2.8-4.5,4.8H161.5z"/>
<path fill="#FFFFFF" d="M180.2,4.8c0,2-1.5,3.7-3.9,3.7c-2.3,0-3.8-1.6-3.8-3.7c0-2.1,1.5-3.7,3.8-3.7S180.2,2.6,180.2,4.8z
	 M172.7,34.8V11.3h7.3v23.5H172.7z"/>
<path fill="#FFFFFF" d="M185.8,19c0-3.5-0.1-5.7-0.2-7.7h6.3l0.2,4.3h0.2c1.2-3.4,4.1-4.9,6.3-4.9c0.7,0,1,0,1.5,0.1v6.9
	c-0.5-0.1-1.2-0.2-2-0.2c-2.7,0-4.5,1.4-5,3.7c-0.1,0.5-0.1,1.1-0.1,1.6v11.9h-7.3V19z"/>
<path fill="#FFFFFF" d="M217,34.8l-0.4-2.4h-0.1c-1.5,1.9-3.9,2.9-6.7,2.9c-4.8,0-7.6-3.5-7.6-7.2c0-6.1,5.5-9,13.8-9v-0.3
	c0-1.3-0.7-3-4.3-3c-2.4,0-5,0.8-6.5,1.8l-1.3-4.7c1.6-0.9,4.9-2.1,9.1-2.1c7.8,0,10.3,4.6,10.3,10.1v8.2c0,2.3,0.1,4.4,0.3,5.7H217
	z M216.1,23.7c-3.8,0-6.8,0.9-6.8,3.7c0,1.9,1.3,2.8,2.9,2.8c1.8,0,3.3-1.2,3.8-2.7c0.1-0.4,0.1-0.8,0.1-1.3V23.7z"/>
<path fill="#FFFFFF" d="M131.1,46c0-2.7-0.1-5-0.2-6.9h5.8l0.3,3h0.1c0.9-1.4,3.1-3.4,6.7-3.4c4.4,0,7.7,2.9,7.7,9.3v12.8h-6.7v-12
	c0-2.8-1-4.7-3.4-4.7c-1.9,0-3,1.3-3.4,2.5c-0.2,0.4-0.3,1.1-0.3,1.7v12.4h-6.7V46z"/>
<path fill="#FFFFFF" d="M178.3,49.6c0,7.9-5.6,11.5-11.4,11.5c-6.3,0-11.2-4.1-11.2-11.1s4.6-11.4,11.5-11.4
	C173.9,38.6,178.3,43.2,178.3,49.6z M162.7,49.9c0,3.7,1.5,6.5,4.4,6.5c2.6,0,4.3-2.6,4.3-6.5c0-3.2-1.2-6.5-4.3-6.5
	C163.9,43.4,162.7,46.7,162.7,49.9z"/>
<path fill="#FFFFFF" d="M187,39.1l2.9,10c0.5,1.8,0.9,3.5,1.2,5.3h0.1c0.4-1.8,0.7-3.4,1.2-5.3l2.8-10h7.1l-8,21.6h-6.7l-7.9-21.6
	L187,39.1z"/>
<path fill="#FFFFFF" d="M217.4,60.7l-0.4-2.2h-0.1c-1.4,1.7-3.6,2.6-6.2,2.6c-4.4,0-7-3.2-7-6.6c0-5.6,5-8.3,12.7-8.3V46
	c0-1.1-0.6-2.8-3.9-2.8c-2.2,0-4.5,0.8-6,1.6l-1.2-4.3c1.5-0.8,4.5-1.9,8.4-1.9c7.2,0,9.5,4.2,9.5,9.3v7.5c0,2.1,0.1,4.1,0.3,5.3
	H217.4z M216.6,50.5c-3.5,0-6.3,0.8-6.3,3.4c0,1.7,1.1,2.6,2.6,2.6c1.7,0,3-1.1,3.5-2.5c0.1-0.4,0.1-0.8,0.1-1.1V50.5z"/>
<path fill="#FF7D00" d="M133.3,74.3c0.1,1.7,1.8,2.5,3.8,2.5c1.4,0,2.6-0.2,3.7-0.5l0.5,2.8c-1.4,0.5-3,0.8-4.8,0.8
	c-4.5,0-7.1-2.6-7.1-6.8c0-3.4,2.1-7.1,6.7-7.1c4.3,0,6,3.4,6,6.7c0,0.7-0.1,1.3-0.1,1.6H133.3z M138.2,71.5c0-1-0.4-2.7-2.3-2.7
	c-1.7,0-2.5,1.6-2.6,2.7H138.2z"/>
<path fill="#FF7D00" d="M144.5,70.6c0-1.7-0.1-3.1-0.1-4.3h3.5l0.2,1.8h0.1c0.6-0.8,1.7-2.1,4-2.1c1.7,0,3.1,0.9,3.7,2.3h0.1
	c0.5-0.7,1.1-1.2,1.7-1.6c0.7-0.4,1.6-0.7,2.5-0.7c2.6,0,4.5,1.8,4.5,5.8v7.9h-4v-7.3c0-1.9-0.6-3.1-2-3.1c-1,0-1.6,0.7-1.9,1.4
	c-0.1,0.3-0.2,0.7-0.2,1.1v7.8h-4v-7.5c0-1.7-0.6-2.8-1.9-2.8c-1.1,0-1.7,0.8-1.9,1.5c-0.1,0.3-0.2,0.7-0.2,1v7.8h-4V70.6z"/>
<path fill="#FF7D00" d="M183.6,79.4c-0.7,0.3-2.1,0.6-3.7,0.6c-4.3,0-7.1-2.6-7.1-6.8c0-3.9,2.7-7.1,7.6-7.1c1.1,0,2.3,0.2,3.2,0.5
	l-0.7,3.1c-0.5-0.2-1.2-0.4-2.3-0.4c-2.2,0-3.6,1.6-3.6,3.7c0,2.5,1.6,3.7,3.7,3.7c1,0,1.7-0.2,2.4-0.4L183.6,79.4z"/>
<path fill="#FF7D00" d="M193.5,79.7l-0.2-1.3h-0.1c-0.9,1.1-2.2,1.6-3.8,1.6c-2.7,0-4.3-2-4.3-4.1c0-3.5,3.1-5.1,7.8-5.1v-0.2
	c0-0.7-0.4-1.7-2.4-1.7c-1.4,0-2.8,0.5-3.7,1l-0.8-2.7c0.9-0.5,2.8-1.2,5.2-1.2c4.5,0,5.9,2.6,5.9,5.8v4.6c0,1.3,0.1,2.5,0.2,3.3
	H193.5z M193.1,73.4c-2.2,0-3.9,0.5-3.9,2.1c0,1.1,0.7,1.6,1.6,1.6c1,0,1.9-0.7,2.2-1.5c0.1-0.2,0.1-0.5,0.1-0.7V73.4z"/>
<path fill="#FF7D00" d="M200.3,76.1c0.8,0.5,2.3,1,3.6,1c1.3,0,1.8-0.4,1.8-1.1c0-0.7-0.4-1-2-1.5c-2.8-0.9-3.8-2.4-3.8-4
	c0-2.5,2.1-4.4,5.4-4.4c1.6,0,3,0.4,3.8,0.8l-0.7,2.9c-0.6-0.3-1.7-0.8-2.9-0.8c-1,0-1.6,0.4-1.6,1.1c0,0.6,0.5,1,2.2,1.5
	c2.5,0.9,3.6,2.2,3.6,4.1c0,2.5-2,4.3-5.8,4.3c-1.7,0-3.3-0.4-4.3-0.9L200.3,76.1z"/>
<path fill="#FF7D00" d="M219.8,79.7l-0.2-1.3h-0.1c-0.9,1.1-2.2,1.6-3.8,1.6c-2.7,0-4.3-2-4.3-4.1c0-3.5,3.1-5.1,7.8-5.1v-0.2
	c0-0.7-0.4-1.7-2.4-1.7c-1.4,0-2.8,0.5-3.7,1l-0.8-2.7c0.9-0.5,2.8-1.2,5.2-1.2c4.5,0,5.9,2.6,5.9,5.8v4.6c0,1.3,0.1,2.5,0.2,3.3
	H219.8z M219.3,73.4c-2.2,0-3.9,0.5-3.9,2.1c0,1.1,0.7,1.6,1.6,1.6c1,0,1.9-0.7,2.2-1.5c0.1-0.2,0.1-0.5,0.1-0.7V73.4z"/>
</svg>
